# xmcd
#
# Track frame offsets:
#  150
#  14644
#  27705
#  42495
#  56258
#  69570
#  84503
#  97698
#  109494
#  124470
#  137632
#  152137
#  165318
#  180276
#  193316
#  206695
#  221328
#  234002
#  246714
#  260071
#  273015
#  286325
#  300536
#  313462
#  326352
#
# Disc length: 4521 seconds
#
# Revision: 0
# Processed by: cddbd v1.5.2PL0 Copyright (c) Steve Scherf et al.
# Submitted via: AltoMP3_Maker 3.0
#
DISCID=6f11a719
DTITLE=Various Artist - Head Rag Hop - Piano Blues 1925-1929 CD C
DYEAR=1900
DGENRE=
TTITLE0=Turner Parrish - Trenches
TTITLE1=Hokum Boys/Jane Lucas - Hokum Stomp
TTITLE2=Peetie Wheatstraw - Pete Wheatstraw
TTITLE3=Pinetop and Lindberg - I Believe I'll Make a Change
TTITLE4=Mary Johnson - Rattlesnake Blues
TTITLE5='Jabo' Williams - Pratt City Blues
TTITLE6=Skip James - If You Haven't Any Hay Get on down the Road
TTITLE7=Stump Johnson - Money Johnson
TTITLE8=Turner Parrish - The Fives
TTITLE9=Walter Davis - L and N Blues
TTITLE10=Sparks Bros - Chicago's Too Much for Me
TTITLE11=Walter Roland - Piano Stomp
TTITLE12=Charlie Segar - Cuban Villa Blues
TTITLE13=Leroy Carr - Suicide Blues take 2
TTITLE14=Memphis Slim - Beer Drinking Woman take 2
TTITLE15=Walter Roland - Red Cross Blues
TTITLE16=Peetie Wheatstraw - Throw Me in the Alley
TTITLE17=Walter Davis - Sweet Sixteen
TTITLE18=Cripple Clarence Lofton - Strut That Thing
TTITLE19=Barrelhouse Buck - Weeping Willow Blues
TTITLE20=Bumble Bee Slim - Who's Been Here Today
TTITLE21=Pinetop - Tell Her about Me
TTITLE22=Cripple Clarence Lofton - Brown Skin Girls
TTITLE23=Blaind Mack - Rootin' Ground-hog Blues
TTITLE24=Red Nelson - Streamline Train
EXTD=
EXTT0=
EXTT1=
EXTT2=
EXTT3=
EXTT4=
EXTT5=
EXTT6=
EXTT7=
EXTT8=
EXTT9=
EXTT10=
EXTT11=
EXTT12=
EXTT13=
EXTT14=
EXTT15=
EXTT16=
EXTT17=
EXTT18=
EXTT19=
EXTT20=
EXTT21=
EXTT22=
EXTT23=
EXTT24=
PLAYORDER=
